<?xml version="1.0" standalone="no"?>
<!DOCTYPE svg PUBLIC "-//W3C//DTD SVG 20010904//EN"
 "http://www.w3.org/TR/2001/REC-SVG-20010904/DTD/svg10.dtd">
<svg version="1.0" xmlns="http://www.w3.org/2000/svg"
 width="1920.000000pt" height="1080.000000pt" viewBox="0 0 1920.000000 1080.000000"
 preserveAspectRatio="xMidYMid meet">

<g transform="translate(0.000000,1080.000000) scale(0.100000,-0.100000)"
fill="#000000" stroke="none">
<path d="M11935 6473 c-62 -59 -125 -137 -150 -185 -75 -141 -102 -207 -116
-288 -5 -30 -18 -93 -29 -140 -10 -47 -26 -132 -36 -190 -9 -58 -21 -107 -25
-110 -5 -4 -16 -58 -24 -120 -8 -63 -22 -146 -30 -185 -44 -216 -46 -238 -40
-334 6 -80 10 -99 27 -112 23 -18 121 -30 267 -33 123 -3 132 4 136 104 1 41
10 143 19 225 10 83 19 170 21 193 2 24 6 46 9 49 8 8 106 -8 101 -17 -3 -4 5
-8 18 -8 12 -1 42 -5 67 -9 41 -7 45 -11 52 -43 11 -57 53 -199 87 -296 17
-50 29 -99 25 -108 -4 -11 3 -26 22 -44 82 -77 121 -81 189 -18 l47 45 -7 98
c-3 54 -13 121 -20 148 -8 28 -17 84 -20 125 -4 41 -8 91 -11 110 -15 111 -24
167 -28 185 -2 11 -5 46 -5 78 -1 41 -4 56 -13 51 -7 -5 -8 -3 -3 6 18 29 -9
245 -49 392 -45 167 -94 277 -144 323 -24 22 -60 47 -81 55 -20 7 -63 29 -96
48 -89 50 -112 51 -160 5z m-159 -285 c-14 -9 -20 7 -11 30 6 15 8 15 15 -3 4
-12 3 -23 -4 -27z m4 -20 c0 -4 -7 -8 -15 -8 -9 0 -12 -6 -9 -17 5 -17 5 -17
-6 0 -6 9 -9 21 -6 25 7 11 36 11 36 0z m339 -405 c12 -71 31 -167 40 -215 10
-49 17 -88 16 -88 -2 0 -22 9 -46 20 -24 11 -61 20 -81 20 -45 0 -45 -2 -19
117 11 48 27 130 37 181 10 50 21 92 24 92 4 0 17 -57 29 -127z m346 -253 c3
-5 -1 -10 -10 -10 -9 0 -13 5 -10 10 3 6 8 10 10 10 2 0 7 -4 10 -10z m2 -72
c-3 -8 -6 -5 -6 6 -1 11 2 17 5 13 3 -3 4 -12 1 -19z m20 -175 c-3 -10 -5 -4
-5 12 0 17 2 24 5 18 2 -7 2 -21 0 -30z m7 -168 c11 -61 17 -91 25 -120 14
-47 22 -99 14 -91 -10 10 -41 133 -49 196 -7 57 0 68 10 15z"/>
<path d="M6893 6434 c-7 -3 -15 -21 -19 -40 -5 -26 -9 -32 -19 -24 -9 8 -12 1
-9 -30 1 -22 -2 -42 -7 -46 -5 -3 -7 -14 -4 -25 8 -24 -12 -25 -37 -2 -18 16
-18 16 -12 0 3 -10 1 -24 -6 -32 -10 -12 -9 -16 5 -22 11 -4 22 0 30 10 16 23
25 21 25 -3 0 -15 -7 -20 -26 -20 -25 0 -26 -2 -21 -40 3 -22 1 -40 -4 -40 -5
0 -9 -14 -9 -31 0 -17 -5 -39 -11 -50 -7 -14 -7 -24 0 -33 5 -6 9 -25 7 -41
-2 -16 1 -45 6 -63 7 -25 5 -46 -6 -80 -9 -25 -12 -48 -8 -51 17 -12 11 -65
-13 -117 -23 -50 -24 -59 -13 -97 6 -23 11 -46 9 -51 -1 -5 -4 -32 -6 -60 -2
-28 -9 -80 -14 -116 -15 -94 -13 -314 4 -384 14 -61 47 -106 95 -131 28 -15
238 -35 358 -35 77 0 118 10 180 43 37 20 38 24 17 63 -8 16 -15 41 -15 56 0
20 -7 28 -31 37 -40 14 -119 14 -153 1 -22 -8 -26 -7 -27 8 -4 101 -10 191
-14 210 -3 13 -1 22 6 22 8 0 8 4 2 13 -6 6 -8 21 -5 32 2 11 5 37 4 58 0 21
5 37 11 37 7 0 4 5 -5 10 -10 6 -15 19 -13 33 3 12 1 55 -3 95 -5 47 -5 72 2
72 6 0 6 4 -1 11 -7 7 -8 21 -2 42 5 17 6 49 3 71 -14 109 -16 172 -18 434 -1
241 -3 285 -16 292 -18 10 -200 22 -217 14z m-93 -474 c0 -5 -2 -10 -4 -10 -3
0 -8 5 -11 10 -3 6 -1 10 4 10 6 0 11 -4 11 -10z"/>
<path d="M9895 6385 c-26 -25 -53 -42 -59 -38 -8 4 -8 3 0 -6 7 -8 9 -44 6
-105 -3 -55 0 -107 7 -127 6 -19 15 -110 21 -204 5 -93 13 -206 16 -251 3 -44
7 -124 8 -177 2 -54 6 -100 9 -104 4 -3 2 -12 -4 -20 -6 -7 -7 -13 -3 -13 5 0
8 -55 7 -122 -2 -115 11 -229 40 -343 8 -34 11 -37 18 -20 7 19 8 19 8 -2 1
-13 7 -23 14 -23 7 0 18 -9 25 -21 17 -27 61 -20 103 16 18 14 36 22 46 18 11
-5 14 -3 9 6 -5 8 0 18 13 27 12 9 19 19 16 24 -3 4 6 21 19 37 24 29 56 109
56 143 0 10 5 22 12 26 6 4 8 3 4 -4 -3 -6 -1 -14 5 -18 9 -5 10 1 5 22 -10
38 -7 127 4 134 12 7 14 56 6 135 -11 109 -15 215 -7 211 4 -3 7 4 7 14 0 10
-4 16 -9 13 -5 -3 -6 5 -1 18 10 31 10 34 -5 159 -13 120 -39 266 -51 295 -7
18 -21 79 -38 170 -3 16 -6 53 -6 82 0 49 -2 52 -29 57 -15 3 -26 10 -23 15 8
12 -51 20 -135 20 -64 -1 -68 -2 -114 -44z m102 9 c-3 -3 -12 -4 -19 -1 -8 3
-5 6 6 6 11 1 17 -2 13 -5z m272 -549 c0 -5 -4 -3 -9 5 -5 8 -9 22 -9 30 0 16
17 -16 18 -35z m13 -104 c2 -17 1 -28 -4 -25 -8 5 -12 54 -4 54 2 0 6 -13 8
-29z m5 -93 c-3 -8 -6 -5 -6 6 -1 11 2 17 5 13 3 -3 4 -12 1 -19z m-2 -228 c3
-5 1 -10 -4 -10 -6 0 -11 5 -11 10 0 6 2 10 4 10 3 0 8 -4 11 -10z"/>
<path d="M8097 6199 c-29 -22 -62 -114 -73 -201 -8 -69 -11 -88 -18 -118 -9
-36 -14 -200 -6 -205 12 -7 2 -135 -11 -151 -8 -9 -9 -18 -3 -22 17 -13 10
-66 -9 -70 -13 -3 -16 -9 -11 -25 4 -12 7 -26 6 -32 -1 -10 -9 -55 -18 -110
-3 -16 -6 -53 -8 -80 -2 -28 -8 -60 -15 -72 -6 -12 -11 -32 -11 -45 0 -39 -27
-68 -64 -68 -40 0 -48 9 -71 78 -16 49 -17 92 -12 465 4 331 8 426 22 482 15
68 15 70 -4 86 -11 9 -62 34 -113 54 -78 32 -108 39 -183 42 -121 6 -124 3
-135 -117 -13 -127 -12 -402 1 -580 18 -258 64 -424 155 -561 79 -120 191
-179 340 -179 82 0 132 16 234 76 137 80 202 179 220 332 5 50 21 122 35 159
13 38 27 93 31 123 4 30 11 66 16 80 5 14 12 52 15 85 3 33 9 65 14 70 4 6 9
51 10 100 1 50 6 119 11 155 5 36 7 74 4 85 -6 22 -109 94 -180 126 -25 11
-48 24 -51 29 -9 14 9 12 23 -2 9 -9 12 -9 12 0 0 12 -61 32 -101 32 -15 0
-38 -9 -52 -21z"/>
<path d="M6676 4513 c-13 -47 -59 -402 -53 -416 5 -12 18 -14 69 -10 88 6 145
28 163 63 31 59 13 115 -47 146 l-32 16 30 13 c76 33 102 111 53 161 -43 42
-173 61 -183 27z m117 -24 c20 -5 44 -21 53 -34 34 -51 -35 -115 -125 -115
-40 0 -43 2 -38 23 3 12 9 48 12 80 7 53 9 57 34 57 14 0 43 -5 64 -11z m-3
-219 c57 -29 68 -80 25 -120 -19 -18 -41 -24 -96 -29 l-71 -7 6 36 c3 19 8 61
12 94 l7 58 39 -6 c22 -4 57 -15 78 -26z"/>
<path d="M7507 4513 c-8 -13 -67 -364 -67 -397 0 -42 18 -30 44 27 24 55 80
127 99 127 6 0 8 -30 4 -90 -4 -71 -3 -90 7 -90 17 0 26 45 26 126 0 52 -3 65
-19 74 -31 16 -41 12 -77 -26 -19 -19 -34 -31 -34 -25 0 6 9 68 21 137 13 80
17 130 11 136 -6 6 -12 6 -15 1z"/>
<path d="M7765 4423 c-22 -129 -19 -123 -61 -123 -45 0 -42 -24 5 -28 24 -3
31 -7 27 -20 -6 -20 -26 -132 -26 -144 0 -4 6 -8 14 -8 9 0 18 22 26 68 18
100 18 100 52 104 42 4 50 28 9 28 -37 0 -37 5 -16 117 18 96 19 103 1 103
-10 0 -19 -28 -31 -97z"/>
<path d="M8882 4499 c-5 -13 -15 -65 -22 -114 l-12 -90 -38 3 c-33 3 -41 -1
-73 -38 -45 -53 -59 -120 -32 -150 25 -28 39 -25 84 15 31 29 38 32 34 16 -7
-27 5 -57 17 -45 15 15 72 406 61 417 -7 7 -13 2 -19 -14z m-56 -244 c7 -18
-39 -99 -68 -119 -29 -21 -41 -10 -35 31 12 69 86 133 103 88z"/>
<path d="M9335 4498 c-15 -44 -63 -394 -55 -402 5 -5 12 -7 15 -5 6 6 65 368
65 398 0 23 -18 29 -25 9z"/>
<path d="M7164 4409 c-10 -17 13 -36 27 -22 12 12 4 33 -11 33 -5 0 -12 -5
-16 -11z"/>
<path d="M8414 4409 c-10 -17 13 -36 27 -22 12 12 4 33 -11 33 -5 0 -12 -5
-16 -11z"/>
<path d="M10274 4409 c-10 -17 13 -36 27 -22 12 12 4 33 -11 33 -5 0 -12 -5
-16 -11z"/>
<path d="M6955 4288 c-6 -22 -25 -143 -25 -166 0 -44 25 -20 43 39 23 80 56
113 103 105 35 -7 43 1 22 22 -18 18 -49 15 -85 -8 -33 -20 -33 -20 -33 0 0
22 -18 27 -25 8z"/>
<path d="M7156 4292 c-2 -4 -12 -47 -21 -96 -16 -85 -14 -129 5 -110 8 8 40
169 40 202 0 13 -16 16 -24 4z"/>
<path d="M7274 4268 c-41 -36 -64 -82 -64 -126 0 -61 54 -70 106 -18 40 40 41
35 14 -69 -32 -127 -69 -169 -124 -144 -35 16 -47 2 -17 -22 57 -47 123 2 159
118 24 74 56 255 50 274 -2 7 -23 14 -45 16 -35 3 -47 -1 -79 -29z m83 -13
c13 -35 -91 -154 -114 -131 -14 14 11 82 42 113 36 36 62 42 72 18z"/>
<path d="M8046 4278 c-3 -13 -10 -56 -16 -96 -16 -109 0 -119 45 -29 32 63 72
117 87 117 10 0 5 -92 -9 -147 -4 -16 -1 -23 10 -23 9 0 26 23 41 56 29 62 63
114 76 114 16 0 19 -34 11 -100 -9 -65 1 -100 18 -71 15 23 23 146 12 174 -15
39 -53 36 -88 -8 l-27 -34 -11 32 c-15 47 -40 46 -87 -4 l-40 -42 4 38 c3 43
-18 62 -26 23z"/>
<path d="M8400 4298 c0 -2 -7 -41 -15 -88 -18 -104 -19 -120 -2 -120 13 0 51
185 41 202 -5 7 -24 12 -24 6z"/>
<path d="M8487 4278 c-3 -13 -11 -56 -18 -96 -18 -106 -2 -112 50 -18 40 74
75 111 94 99 6 -3 7 -37 3 -84 -4 -46 -2 -80 3 -83 16 -10 23 12 28 93 5 64 3
80 -11 94 -26 26 -44 21 -88 -23 l-39 -39 3 36 c3 40 -17 57 -25 21z"/>
<path d="M8940 4280 c-11 -11 -20 -24 -20 -28 0 -15 25 -40 68 -66 48 -30 53
-43 18 -52 -25 -6 -66 10 -66 26 0 6 -7 10 -15 10 -8 0 -15 -6 -15 -14 0 -22
49 -56 79 -56 34 0 71 26 71 50 0 20 -48 65 -80 75 -11 3 -20 15 -20 26 0 24
46 26 76 4 24 -18 34 -19 34 -1 0 43 -95 61 -130 26z"/>
<path d="M9429 4285 c-73 -40 -86 -140 -24 -181 22 -14 32 -15 64 -5 39 11 69
36 58 48 -4 3 -24 -2 -46 -11 -30 -14 -43 -16 -60 -7 -29 16 -26 28 7 36 16 3
45 20 66 37 31 25 37 36 34 62 -3 28 -7 31 -38 33 -19 2 -47 -4 -61 -12z m69
-31 c-3 -19 -42 -49 -75 -59 -34 -10 -29 18 8 49 35 30 72 35 67 10z"/>
<path d="M9644 4281 c-55 -33 -94 -147 -62 -179 24 -24 56 -13 97 34 l41 47
-6 -47 c-5 -37 -4 -46 8 -46 12 0 19 24 30 98 10 59 12 101 6 107 -6 6 -12 5
-17 -4 -7 -10 -13 -10 -29 -2 -27 15 -32 14 -68 -8z m65 -24 c19 -23 -84 -155
-105 -135 -15 16 9 83 41 115 36 36 47 40 64 20z"/>
<path d="M9825 4288 c-6 -22 -25 -143 -25 -166 0 -44 25 -20 43 39 23 80 56
113 103 105 35 -7 43 1 22 22 -18 18 -49 15 -85 -8 -33 -20 -33 -20 -33 0 0
22 -18 27 -25 8z"/>
<path d="M10025 4288 c-2 -7 -11 -51 -19 -97 -22 -117 -7 -132 39 -41 25 50
81 120 95 120 16 0 20 -33 10 -98 -10 -70 0 -100 19 -63 17 32 19 155 2 175
-22 26 -52 19 -92 -25 l-37 -40 5 40 c4 28 2 41 -6 41 -6 0 -13 -6 -16 -12z"/>
<path d="M10260 4298 c0 -2 -7 -41 -15 -88 -18 -104 -19 -120 -2 -120 13 0 51
185 41 202 -5 7 -24 12 -24 6z"/>
<path d="M10347 4278 c-3 -13 -11 -56 -18 -96 -18 -106 -2 -112 50 -18 40 74
75 111 94 99 6 -3 7 -37 3 -84 -4 -46 -2 -80 3 -83 16 -10 23 12 28 93 5 64 3
80 -11 94 -26 26 -44 21 -88 -23 l-39 -39 3 36 c3 40 -17 57 -25 21z"/>
<path d="M10614 4268 c-41 -36 -64 -82 -64 -126 0 -61 54 -70 106 -18 40 40
41 35 14 -69 -32 -127 -69 -169 -124 -144 -35 16 -47 2 -17 -22 57 -47 123 2
159 118 24 74 56 255 50 274 -2 7 -23 14 -45 16 -35 3 -47 -1 -79 -29z m83
-13 c13 -35 -91 -154 -114 -131 -14 14 11 82 42 113 36 36 62 42 72 18z"/>
</g>
</svg>
